<svg width="18" height="20" viewBox="0 0 18 20" fill="none" xmlns="http://www.w3.org/2000/svg">
<path d="M17.3119 13.6058L14.9109 0.193037L1.48587 2.52434C1.34273 2.53006 1.20249 2.56647 1.07464 2.63111C0.946791 2.69574 0.834323 2.78709 0.744849 2.89897C0.655374 3.01085 0.590984 3.14065 0.556034 3.27958C0.521084 3.4185 0.516391 3.56332 0.542275 3.70422C0.568158 3.84512 0.624013 3.97881 0.706057 4.09625C0.788101 4.21369 0.89442 4.31212 1.01781 4.3849C1.14121 4.45767 1.2788 4.50309 1.42127 4.51806C1.56375 4.53304 1.70777 4.51723 1.8436 4.4717L11.9065 2.74043L0.933953 18.4108C0.781831 18.6281 0.722243 18.8968 0.768297 19.158C0.814352 19.4192 0.962276 19.6514 1.17953 19.8035C1.39678 19.9557 1.66557 20.0152 1.92675 19.9692C2.18794 19.9231 2.42014 19.7752 2.57226 19.558L13.5448 3.88758L15.3596 13.9357C15.4066 14.1969 15.5554 14.4287 15.7734 14.5801C15.9913 14.7316 16.2604 14.7902 16.5216 14.7432C16.7828 14.6962 17.0146 14.5474 17.166 14.3295C17.3174 14.1116 17.3761 13.8424 17.3291 13.5813L17.3119 13.6058Z" fill="black"/>
</svg>
